<svg class="img-fluid" id="outputsvg" xmlns="http://www.w3.org/2000/svg" style="transform: matrix(1, 0, 0, 1, 0.235352, 0.470702); transform-origin: 50% 50%; cursor: move; max-height: none; transition: transform 200ms ease-in-out 0s;" width="1063" height="874" viewBox="0 0 10630 8740"><g id="l42q6LbULuSOB4y0x3j5tZn" fill="rgb(68, 68, 64)" style="transform: none;"><g style="transform: none;"><path id="paw1YzD37" d="M5772 8262 c-202 -236 -223 -264 -217 -296 19 -109 175 -1244 175 -1273 l0 -36 -62 7 c-35 3 -103 11 -153 16 -49 5 -130 10 -178 10 l-89 0 6 113 c4 61 15 339 26 617 11 278 22 519 25 537 5 30 -3 41 -136 178 -126 129 -169 164 -169 137 0 -5 52 -63 116 -130 64 -67 112 -122 107 -122 -4 0 -69 24 -143 54 -84 34 -139 51 -145 45 -15 -15 2 -24 165 -89 85 -34 158 -65 162 -68 4 -4 -4 -270 -17 -592 -14 -322 -25 -604 -25 -628 0 -25 -5 -44 -12 -46 -7 -2 -62 -9 -123 -15 -135 -14 -322 -59 -394 -95 l-53 -27 -33 38 c-17 21 -63 76 -101 122 -38 47 -75 86 -81 89 -15 4 -18 -34 -3 -43 14 -9 180 -214 180 -222 -1 -5 -17 -18 -36 -30 -28 -18 -50 -23 -104 -23 -208 0 -367 -78 -443 -217 -66 -122 -94 -388 -63 -589 l18 -109 -25 -66 c-14 -36 -40 -135 -59 -220 -31 -146 -33 -164 -32 -364 0 -343 53 -624 155 -827 l19 -38 -67 -62 c-173 -161 -169 -156 -156 -169 10 -10 34 8 115 82 57 52 110 100 119 107 14 11 23 1 70 -70 101 -154 299 -368 417 -451 18 -12 32 -26 32 -32 0 -5 -12 -35 -26 -65 -14 -30 -27 -64 -29 -75 -1 -11 -64 -160 -139 -331 -75 -170 -136 -316 -136 -322 0 -7 6 -12 14 -12 13 0 316 678 331 743 4 15 11 30 16 33 5 3 45 -15 89 -41 171 -100 423 -175 590 -175 l97 0 7 -142 c3 -78 10 -146 15 -151 21 -21 28 24 21 143 -4 69 -5 133 -2 143 3 12 15 17 44 17 116 0 406 89 592 181 43 22 80 38 81 37 1 -2 5 -63 8 -136 4 -106 2 -135 -9 -139 -17 -6 -36 -65 -29 -86 4 -8 20 -21 37 -28 47 -19 82 4 86 58 3 33 -1 44 -22 60 -23 18 -25 27 -29 128 -6 148 -1 178 35 205 16 12 32 19 35 16 4 -3 6 -44 6 -91 0 -64 -4 -94 -18 -120 -15 -27 -17 -40 -9 -62 22 -65 114 -48 114 22 0 32 -21 65 -41 65 -5 0 -9 52 -9 118 l0 118 48 47 c26 26 51 47 55 47 4 0 7 -24 7 -54 0 -38 -6 -60 -20 -79 -11 -14 -20 -37 -20 -51 0 -41 61 -71 98 -47 23 14 19 81 -6 101 -19 16 -22 28 -22 98 0 73 3 84 35 138 43 71 55 112 55 187 0 97 -45 161 -136 192 -34 11 -39 19 -79 121 -25 65 -48 110 -58 112 -10 2 -29 -23 -58 -77 -36 -69 -47 -81 -68 -81 -53 0 -105 -23 -152 -67 -51 -48 -73 -95 -84 -178 -4 -27 -14 -63 -22 -79 -56 -109 -263 -247 -394 -262 -74 -8 -258 33 -357 81 -76 36 -257 161 -307 211 -73 74 -162 279 -171 398 -14 171 103 444 254 594 35 34 67 62 72 62 4 0 10 -80 12 -177 4 -149 9 -189 28 -248 56 -175 128 -248 305 -310 l60 -21 5 -209 c4 -178 7 -210 20 -210 13 0 14 28 11 206 l-4 206 103 5 c95 5 107 8 183 47 l81 41 58 -57 c38 -37 61 -54 68 -47 6 6 -10 31 -46 71 l-54 62 29 46 c44 70 61 160 61 330 0 80 -5 177 -11 215 -19 124 -30 128 251 -91 140 -109 261 -198 268 -199 38 -1 -14 46 -262 239 l-274 213 -9 49 c-10 48 -9 50 20 75 16 13 43 32 61 41 88 45 251 202 341 328 58 82 130 252 149 354 9 46 16 120 16 165 0 74 -3 87 -29 127 -16 24 -45 61 -65 82 -20 21 -36 42 -36 47 0 5 52 89 115 185 63 97 115 180 115 185 0 37 -43 -13 -141 -165 -63 -96 -118 -175 -123 -175 -5 0 -23 10 -40 23 -97 72 -236 147 -356 193 l-85 32 -92 648 c-51 357 -91 657 -90 668 1 14 40 32 167 80 177 66 190 72 190 87 0 17 -30 9 -162 -41 -72 -27 -135 -50 -140 -50 -13 0 41 75 116 159 36 40 63 78 60 82 -9 16 -28 8 -52 -19z m-286 -1612 c173 -17 173 -16 59 -59 -166 -63 -281 -128 -401 -229 -68 -56 -177 -204 -234 -317 -34 -68 -35 -73 -35 -185 0 -111 1 -118 33 -183 87 -176 310 -330 498 -344 198 -15 386 105 439 281 5 16 11 13 42 -25 21 -24 66 -74 101 -111 l63 -66 -59 -49 c-90 -72 -209 -144 -281 -171 -72 -26 -227 -52 -310 -52 -91 0 -332 -40 -384 -63 -26 -12 -78 -49 -116 -82 -123 -108 -216 -254 -277 -435 -25 -73 -29 -100 -29 -195 0 -134 22 -205 101 -340 59 -102 86 -129 199 -211 179 -129 379 -204 542 -204 60 0 80 5 149 39 90 43 194 114 241 163 46 49 73 108 85 187 9 61 16 77 50 116 50 56 89 77 147 79 45 1 45 1 80 68 20 37 39 68 43 68 7 0 63 -141 70 -175 2 -12 14 -21 35 -26 43 -9 92 -39 117 -72 17 -23 21 -43 21 -100 0 -106 -38 -170 -185 -318 -131 -132 -199 -176 -377 -248 -247 -100 -362 -128 -568 -137 -118 -6 -141 -4 -249 21 -302 68 -486 172 -721 409 -115 115 -159 168 -242 291 -65 98 -113 181 -136 240 -89 223 -138 659 -103 905 38 267 84 408 221 685 137 277 339 578 443 661 190 150 542 220 928 184z m403 -81 c87 -35 242 -124 323 -186 67 -51 141 -134 164 -182 20 -41 14 -173 -11 -281 -20 -85 -97 -250 -148 -320 -45 -61 -136 -160 -147 -160 -4 0 -47 46 -96 102 -148 170 -154 174 -154 111 0 -53 -33 -114 -94 -171 -122 -116 -270 -148 -431 -92 -170 59 -325 202 -377 348 -28 78 -21 197 15 276 38 82 151 248 201 294 147 135 411 271 568 291 76 11 92 8 187 -30z m-1467 -201 c-153 -208 -262 -384 -356 -580 -33 -70 -64 -128 -67 -128 -3 0 -12 35 -19 77 -17 96 -2 296 30 418 52 199 191 294 447 304 l33 1 -68 -92z m1376 -1225 c23 -92 44 -347 40 -471 -7 -172 -25 -229 -98 -303 -78 -79 -142 -103 -275 -102 -214 1 -364 94 -427 264 -36 97 -48 184 -48 355 l0 142 48 20 c56 24 206 48 392 62 128 10 283 39 319 60 29 17 40 11 49 -27z m630 -1647 c5 -26 -11 -38 -32 -23 -11 8 -15 19 -10 30 8 23 38 18 42 -7z m-133 -206 c8 -26 -1 -40 -26 -40 -25 0 -35 25 -19 45 17 21 37 19 45 -5z m-105 -171 c0 -20 -28 -39 -47 -32 -18 6 -16 39 3 58 19 19 44 4 44 -26z"></path><path id="pDZ8AXfPw" d="M3640 8014 c-127 -46 -210 -163 -210 -295 0 -47 16 -107 26 -97 2 3 6 48 7 99 2 82 5 100 29 140 55 93 134 139 243 139 76 0 128 -18 190 -66 42 -32 58 -24 25 11 -65 70 -216 103 -310 69z"></path><path id="pOVbNb2a9" d="M2490 7939 c-117 -20 -236 -99 -300 -199 -93 -144 -93 -345 -1 -488 38 -59 76 -96 90 -87 17 10 14 16 -34 80 -65 86 -88 165 -83 275 3 73 9 98 36 152 91 186 279 270 495 222 20 -5 27 -3 27 9 0 30 -138 51 -230 36z"></path><path id="p1FB1NvNYx" d="M7107 7920 c-50 -13 -108 -43 -131 -69 -32 -35 -13 -33 49 3 231 139 494 -69 419 -331 -10 -35 13 -27 25 8 16 46 13 138 -5 193 -22 63 -100 148 -163 174 -58 26 -142 35 -194 22z"></path><path id="pwBhrYnkG" d="M3675 7851 c-57 -35 -70 -58 -70 -122 0 -34 4 -58 10 -56 6 1 9 20 7 42 -7 106 127 177 202 106 29 -27 51 -28 37 -2 -26 47 -132 66 -186 32z"></path><path id="paLtTbuIl" d="M8126 7756 c-91 -34 -72 -55 29 -31 218 51 410 -77 447 -297 13 -78 -7 -167 -52 -241 -17 -27 -30 -53 -30 -58 0 -19 20 -8 43 24 39 51 55 89 68 160 32 173 -57 343 -219 420 -58 28 -80 32 -157 35 -59 1 -103 -3 -129 -12z"></path><path id="pTV8OpOMR" d="M1033 7745 c-383 -83 -513 -566 -226 -835 59 -55 105 -81 120 -66 4 3 -32 43 -78 88 -89 87 -118 134 -144 233 -27 105 -14 209 40 315 33 65 119 151 183 184 60 30 159 56 219 56 44 0 65 16 42 31 -20 12 -83 10 -156 -6z"></path><path id="pKwtqrDc5" d="M7114 7746 c-33 -15 -50 -33 -40 -43 3 -3 18 3 33 13 36 23 109 23 145 0 39 -25 64 -95 49 -137 -13 -39 -5 -52 16 -24 20 27 12 104 -15 142 -41 57 -121 78 -188 49z"></path><path id="pjgbxwPVV" d="M2485 7701 c-107 -50 -155 -179 -106 -288 20 -43 54 -83 71 -83 16 0 12 36 -6 51 -40 33 -60 110 -44 168 28 106 150 167 253 126 24 -10 23 21 -2 35 -31 16 -122 11 -166 -9z"></path><path id="p2Rx193Ef" d="M3780 7658 c0 -7 39 -62 86 -123 119 -154 124 -159 136 -147 8 8 -3 30 -38 74 -27 35 -74 96 -104 135 -52 68 -80 89 -80 61z"></path><path id="pznsEdZA5" d="M9550 7595 c-7 -9 -10 -18 -7 -22 4 -3 44 -11 91 -18 113 -17 201 -59 272 -129 193 -194 169 -510 -52 -674 -62 -46 -80 -72 -49 -72 48 0 141 78 197 165 60 92 82 177 76 294 -6 110 -22 156 -84 251 -72 109 -188 185 -319 209 -80 15 -110 14 -125 -4z"></path><path id="pUrqNkht2" d="M8181 7547 c-25 -13 -26 -34 -1 -28 8 2 40 4 71 5 47 1 61 -3 93 -28 21 -16 45 -45 53 -65 19 -45 12 -114 -16 -152 -25 -34 -27 -52 -4 -47 24 4 63 85 63 130 0 76 -51 155 -119 184 -41 17 -108 18 -140 1z"></path><path id="p10h4cbOwj" d="M6990 7399 c-113 -137 -137 -174 -107 -167 19 4 257 290 251 300 -13 20 -37 -2 -144 -133z"></path><path id="pEJlzNXV4" d="M1090 7511 c-50 -15 -89 -41 -124 -83 -75 -88 -75 -206 0 -305 32 -42 82 -69 98 -53 8 8 0 20 -32 47 -82 68 -105 164 -59 253 32 64 91 103 167 108 40 3 60 9 60 17 0 24 -56 32 -110 16z"></path><path id="pkOrL4pFh" d="M9550 7320 c0 -15 7 -20 28 -20 50 0 103 -21 142 -56 98 -89 88 -232 -22 -311 -37 -27 -46 -38 -38 -48 25 -31 111 33 146 109 74 159 -44 346 -218 346 -31 0 -38 -3 -38 -20z"></path><path id="p17C9Mcmns" d="M4229 7306 c-97 -26 -173 -88 -211 -173 -33 -74 -33 -210 0 -221 8 -2 9 16 5 66 -8 97 15 161 81 227 103 103 242 114 366 29 29 -20 54 -33 57 -30 18 17 -80 82 -153 101 -68 18 -84 18 -145 1z"></path><path id="pxdksrHF1" d="M1192 7248 c4 -13 928 -337 961 -338 19 0 23 15 6 25 -22 14 -934 325 -952 325 -10 0 -17 -6 -15 -12z"></path><path id="peRHtL8rh" d="M6537 7210 c-50 -13 -108 -43 -131 -69 -31 -34 -12 -35 40 -1 55 35 103 50 157 50 181 0 321 -175 278 -346 -13 -49 -8 -65 12 -45 8 8 12 44 12 104 0 106 -19 157 -83 222 -69 70 -193 107 -285 85z"></path><path id="p1sGgH9BV" d="M4245 7141 c-63 -28 -98 -99 -81 -165 11 -43 24 -29 23 23 -2 59 21 97 76 124 45 22 85 16 128 -20 30 -26 46 -26 36 0 -7 19 -87 57 -118 57 -13 0 -42 -9 -64 -19z"></path><path id="pzA0fxtCF" d="M9022 6916 c-360 -110 -462 -144 -459 -156 2 -8 7 -14 13 -14 5 1 222 66 482 145 314 95 472 147 472 156 0 7 -10 12 -22 12 -13 -1 -231 -65 -486 -143z"></path><path id="p14SfxJQkc" d="M6544 7036 c-18 -8 -35 -19 -39 -26 -14 -22 5 -23 48 0 33 18 52 21 80 16 73 -14 123 -97 99 -166 -13 -35 1 -41 19 -9 16 31 6 102 -21 139 -39 55 -119 75 -186 46z"></path><path id="pt63QEb6m" d="M2711 6984 c-126 -34 -228 -119 -289 -243 -36 -73 -37 -77 -37 -191 0 -114 1 -117 37 -191 36 -71 89 -139 109 -139 19 0 8 36 -21 72 -111 135 -120 348 -19 494 38 56 101 108 169 142 51 25 64 27 165 26 61 -1 121 -4 134 -5 48 -7 32 20 -20 35 -65 20 -156 19 -228 0z"></path><path id="p2xKrcW6Y" d="M7928 6933 c-10 -2 -18 -10 -18 -17 0 -9 25 -15 80 -20 178 -15 310 -108 371 -263 19 -46 23 -78 24 -154 0 -90 -2 -99 -38 -171 -27 -56 -54 -91 -97 -131 -55 -49 -73 -77 -52 -77 16 0 86 56 121 95 46 53 90 150 103 230 38 227 -132 461 -367 504 -60 11 -96 12 -127 4z"></path><path id="pj5EcGHmd" d="M2762 6762 c-131 -52 -184 -214 -106 -325 29 -40 64 -61 64 -37 0 6 -11 26 -24 43 -69 92 -44 221 55 276 37 21 50 23 116 17 57 -4 74 -3 71 7 -6 15 -64 36 -103 36 -16 0 -49 -8 -73 -17z"></path><path id="p3cPXLxe8" d="M7930 6676 c0 -9 18 -15 51 -19 72 -9 132 -47 158 -100 40 -83 18 -178 -54 -233 -19 -14 -35 -30 -35 -35 0 -18 39 -8 70 17 120 101 90 299 -55 365 -48 22 -135 26 -135 5z"></path><path id="pik9kKam2" d="M9124 6675 c-9 -22 -3 -26 68 -42 289 -67 438 -376 308 -639 -37 -75 -117 -157 -196 -198 -61 -33 -80 -56 -45 -56 37 0 123 50 182 107 221 211 190 584 -62 752 -99 66 -243 109 -255 76z"></path><path id="p1EcUlBII9" d="M1550 6617 c-208 -74 -331 -247 -332 -467 0 -140 48 -255 149 -351 81 -77 123 -98 123 -60 0 10 -22 35 -52 57 -64 48 -121 121 -150 194 -18 45 -22 75 -23 165 0 104 2 114 33 179 18 39 48 89 67 112 71 87 211 154 322 154 62 0 90 11 79 29 -13 20 -145 13 -216 -12z"></path><path id="p18jdOXOn5" d="M7064 6458 c-9 -15 6 -24 60 -37 154 -38 262 -164 274 -321 10 -147 -66 -283 -197 -349 -44 -23 -56 -36 -42 -46 17 -10 112 45 161 94 25 25 60 73 76 106 27 55 29 69 29 170 0 104 -2 113 -32 171 -40 77 -107 145 -176 178 -60 30 -144 48 -153 34z"></path><path id="p10qRLTkDc" d="M3705 6446 c-61 -19 -96 -41 -137 -83 -126 -130 -109 -347 36 -458 59 -45 61 -18 2 35 -73 68 -99 130 -94 224 8 149 103 250 256 271 29 4 52 11 52 16 0 13 -68 10 -115 -5z"></path><path id="p15aVDlKY5" d="M9086 6411 c-8 -13 14 -28 55 -35 76 -14 142 -85 156 -169 12 -79 -44 -173 -124 -209 -30 -13 -40 -23 -36 -34 13 -34 107 15 153 78 43 58 56 134 35 203 -19 66 -72 130 -130 156 -43 20 -100 25 -109 10z"></path><path id="p1HIenMudL" d="M1615 6381 c-124 -58 -174 -211 -109 -332 30 -53 79 -99 107 -99 28 0 19 19 -31 69 -38 36 -52 58 -61 98 -30 125 58 240 190 246 40 1 54 6 54 17 0 24 -100 25 -150 1z"></path><path id="pukYIqebK" d="M3740 6299 c-105 -43 -125 -189 -36 -261 45 -37 50 -11 5 30 -80 71 -31 206 78 216 21 2 38 8 38 12 0 13 -56 15 -85 3z"></path><path id="pG5ULm30H" d="M7032 6238 c3 -7 19 -16 38 -19 38 -8 75 -34 104 -73 32 -43 29 -132 -6 -178 -15 -19 -43 -43 -62 -52 -37 -18 -48 -36 -21 -36 26 0 71 27 98 59 74 88 54 221 -42 282 -46 30 -117 41 -109 17z"></path><path id="p1Daqb1o27" d="M9911 5960 c-23 -14 -3 -28 78 -55 397 -132 430 -651 54 -836 -37 -19 -67 -38 -66 -44 8 -40 146 26 229 109 217 218 182 582 -72 751 -85 56 -194 93 -223 75z"></path><path id="plsWHv7pZ" d="M565 5836 c-88 -42 -142 -89 -194 -167 -62 -93 -85 -179 -79 -298 9 -167 83 -295 228 -391 51 -34 173 -75 196 -66 30 12 7 31 -68 57 -90 32 -151 71 -208 136 -51 58 -75 104 -95 180 -55 210 46 422 249 521 60 29 78 50 50 59 -5 2 -41 -12 -79 -31z"></path><path id="pFoPitqAW" d="M2817 5816 c-115 -48 -188 -115 -239 -223 -60 -127 -61 -265 -1 -391 34 -73 134 -174 205 -207 104 -49 120 -22 19 35 -169 95 -254 261 -224 436 29 165 142 289 306 334 34 9 63 22 65 28 7 21 -69 13 -131 -12z"></path><path id="pDH4hqzOK" d="M7942 5798 c3 -7 26 -27 53 -45 112 -74 176 -168 197 -291 29 -169 -62 -351 -214 -428 -41 -21 -155 -53 -190 -54 -5 0 -8 -7 -8 -15 0 -18 29 -19 102 -4 178 38 318 187 349 372 28 166 -55 352 -197 443 -54 34 -99 45 -92 22z"></path><path id="p1EEGxj9xn" d="M9860 5685 c0 -8 16 -19 38 -24 158 -44 211 -223 98 -336 -23 -22 -57 -45 -75 -51 -38 -10 -51 -31 -26 -40 42 -17 150 66 180 138 33 81 12 197 -47 260 -52 54 -168 91 -168 53z"></path><path id="pwmWP0ahp" d="M696 5635 c-73 -26 -138 -109 -152 -193 -8 -54 19 -143 58 -188 37 -42 94 -73 140 -76 52 -5 42 23 -17 44 -180 64 -192 296 -19 375 45 20 53 27 43 39 -6 8 -12 14 -13 14 0 -1 -18 -7 -40 -15z"></path><path id="pMxPIqOEL" d="M2926 5623 c-40 -10 -97 -54 -123 -95 -25 -36 -28 -51 -28 -119 0 -70 3 -81 30 -121 31 -43 95 -88 128 -88 32 0 17 25 -28 49 -55 29 -80 61 -95 123 -25 96 38 193 139 218 30 7 50 17 48 24 -4 12 -41 17 -71 9z"></path><path id="p1AO929Gi9" d="M7840 5575 c0 -8 4 -15 10 -15 16 0 80 -61 96 -91 7 -15 14 -51 14 -79 0 -98 -65 -173 -163 -186 -60 -8 -57 -29 5 -28 93 1 180 84 194 185 10 70 -11 127 -66 181 -47 48 -90 63 -90 33z"></path><path id="p12HAoVehS" d="M1840 5539 c-140 -10 -385 -27 -545 -39 -267 -19 -335 -29 -292 -46 9 -3 283 13 609 35 326 23 599 41 606 41 6 0 12 7 12 15 0 19 -52 18 -390 -6z"></path><path id="pzNqknDJx" d="M3661 5510 c-51 -12 -112 -62 -144 -119 -42 -74 -42 -158 0 -233 32 -56 99 -112 127 -106 12 2 3 14 -33 41 -68 50 -91 97 -91 184 0 58 4 75 27 108 37 55 71 82 126 102 70 26 63 41 -12 23z"></path><path id="ppwLu81lF" d="M7020 5471 c0 -6 24 -26 53 -44 169 -108 230 -294 153 -463 -47 -104 -128 -171 -241 -202 -36 -10 -66 -22 -65 -27 2 -21 87 -4 157 30 82 41 138 98 180 184 25 50 28 67 28 161 0 93 -3 112 -27 162 -30 64 -95 139 -150 174 -44 28 -88 41 -88 25z"></path><path id="p2NWbEiB4" d="M8998 5401 c-306 -31 -560 -59 -564 -64 -26 -26 52 -22 581 31 469 47 570 60 570 72 0 8 -7 15 -15 16 -8 1 -266 -24 -572 -55z"></path><path id="p16MEN7lFH" d="M3684 5390 c-28 -11 -61 -54 -69 -91 -9 -38 21 -99 57 -119 42 -23 44 -5 4 33 -38 36 -43 55 -25 105 7 22 23 37 50 49 21 9 39 20 39 25 0 10 -29 9 -56 -2z"></path><path id="pbtPDdVoC" d="M6942 5271 c2 -6 19 -20 37 -33 103 -69 98 -224 -10 -278 -21 -11 -50 -20 -64 -20 -16 0 -25 -6 -25 -16 0 -14 7 -16 41 -11 92 12 162 95 162 192 0 60 -19 101 -68 144 -33 29 -81 43 -73 22z"></path><path id="p6pkpOSXJ" d="M6102 5213 c3 -15 43 -23 273 -55 149 -20 280 -37 293 -38 35 0 27 28 -10 35 -50 8 -539 75 -550 75 -5 0 -8 -8 -6 -17z"></path><path id="pdIYk0Aq5" d="M1431 5063 c-29 -15 -79 -56 -111 -90 -160 -171 -182 -410 -57 -605 74 -117 219 -207 348 -216 59 -4 69 -2 69 11 0 10 -11 19 -27 22 -203 40 -313 115 -383 260 -60 124 -60 264 0 390 34 71 109 152 178 192 50 29 64 42 56 55 -8 12 -16 10 -73 -19z"></path><path id="pJl10OHJS" d="M9315 5050 c-4 -6 11 -25 32 -43 101 -86 151 -158 178 -262 53 -204 -49 -418 -243 -512 -61 -29 -89 -36 -165 -42 -72 -5 -92 -9 -92 -21 0 -12 16 -16 68 -18 213 -9 415 147 472 363 49 191 -25 405 -178 516 -42 31 -62 36 -72 19z"></path><path id="p5eVXAAGM" d="M1559 4860 c-76 -40 -119 -118 -119 -214 1 -77 30 -139 89 -183 44 -34 107 -56 144 -51 28 4 29 32 2 36 -106 18 -167 65 -191 148 -9 32 -13 67 -8 88 10 57 59 122 110 146 43 21 53 43 23 47 -8 1 -30 -6 -50 -17z"></path><path id="pY6YWKtZH" d="M3645 4806 c-824 -377 -837 -384 -832 -398 2 -7 11 -12 18 -10 24 6 973 443 984 453 5 6 5 13 -1 19 -6 6 -67 -17 -169 -64z"></path><path id="p1CUDBLRz2" d="M2065 4771 c-219 -62 -310 -92 -310 -102 0 -8 8 -13 20 -12 23 3 595 162 607 169 10 6 11 34 1 33 -5 0 -147 -40 -318 -88z"></path><path id="p8hwVyGpC" d="M8174 4838 c-4 -5 -2 -13 2 -18 5 -5 126 -31 269 -60 143 -28 271 -54 283 -57 19 -5 23 -2 20 13 -3 15 -45 26 -286 75 -166 33 -285 52 -288 47z"></path><path id="pO47hXKUR" d="M9170 4826 c0 -8 16 -27 34 -41 65 -49 94 -155 65 -232 -14 -39 -67 -93 -109 -110 -19 -8 -58 -15 -88 -14 -45 0 -53 -2 -50 -17 3 -14 15 -17 69 -17 56 0 73 5 115 30 96 60 139 185 100 290 -27 69 -136 158 -136 111z"></path><path id="pa6OTh92A" d="M2412 4636 c-228 -248 -89 -664 246 -735 91 -19 230 -4 239 25 6 20 -23 23 -92 12 -173 -29 -351 66 -428 229 -30 64 -32 75 -32 178 0 98 3 116 26 165 14 30 42 75 62 98 35 42 47 72 28 72 -5 0 -27 -20 -49 -44z"></path><path id="pc8FShInD" d="M8220 4660 c0 -5 23 -35 51 -66 28 -31 63 -82 78 -113 23 -50 26 -68 26 -166 0 -102 -2 -115 -31 -175 -75 -159 -237 -252 -411 -236 -62 6 -73 4 -73 -8 0 -22 39 -29 143 -24 78 3 102 9 158 36 281 135 348 489 136 719 -36 39 -77 57 -77 33z"></path><path id="pCmNwk7vJ" d="M7152 4644 c3 -15 663 -364 689 -364 6 0 9 7 7 16 -2 8 -80 55 -178 105 -316 163 -508 259 -515 259 -3 0 -5 -7 -3 -16z"></path><path id="pSJUyv7hE" d="M2589 4508 c-130 -136 -33 -368 155 -368 64 0 86 7 86 27 0 12 -10 13 -53 8 -59 -8 -114 9 -156 48 -28 26 -60 93 -61 126 0 42 22 99 51 131 16 17 29 35 29 41 0 17 -29 9 -51 -13z"></path><path id="p1Fd6fbYbU" d="M6770 4493 c0 -6 12 -36 26 -68 30 -65 29 -117 -6 -185 -44 -86 -118 -125 -225 -118 -72 4 -84 -4 -29 -22 94 -31 214 16 268 104 38 61 47 154 22 220 -16 41 -56 91 -56 69z"></path><path id="pIVmURPqU" d="M8065 4481 c-3 -6 8 -25 25 -44 60 -69 73 -132 41 -202 -34 -77 -116 -123 -196 -112 -47 7 -61 1 -44 -20 16 -18 111 -17 157 3 111 46 163 180 112 291 -30 66 -79 109 -95 84z"></path><path id="payFIgBfi" d="M3714 4422 c-269 -225 -1060 -916 -1062 -928 -3 -10 2 -15 12 -12 8 1 137 109 287 238 150 129 394 340 543 469 331 285 303 258 289 272 -7 7 -27 -4 -69 -39z"></path><path id="pnvlfE25j" d="M6660 4410 c0 -6 7 -24 15 -39 11 -21 12 -37 4 -64 -12 -46 -49 -69 -102 -65 -50 3 -53 -13 -5 -26 94 -24 170 83 123 174 -15 29 -35 40 -35 20z"></path><path id="pGMnLZIul" d="M7034 4228 c-4 -6 3 -20 17 -31 37 -30 1063 -707 1072 -707 43 0 -58 74 -525 383 -293 194 -538 356 -545 360 -6 4 -15 2 -19 -5z"></path><path id="pyZHbEugr" d="M8515 4121 c-6 -11 21 -41 37 -41 13 0 206 -97 368 -185 244 -132 577 -305 588 -305 33 0 4 30 -60 62 -40 21 -98 52 -128 69 -147 84 -776 409 -792 409 -4 0 -9 -4 -13 -9z"></path><path id="pw1PZ2fZg" d="M1975 4070 c-38 -16 -236 -97 -438 -179 -203 -82 -372 -152 -375 -155 -3 -4 -1 -11 5 -17 15 -15 887 340 891 364 4 22 0 22 -83 -13z"></path><path id="pckEfxaoX" d="M718 3978 c-53 -58 -103 -163 -119 -248 -45 -251 124 -500 380 -560 71 -17 212 -8 247 15 45 29 16 39 -73 26 -149 -21 -284 22 -387 125 -165 165 -177 419 -29 601 68 84 52 118 -19 41z"></path><path id="p1G6PkiYPb" d="M9875 4000 c-3 -5 20 -33 50 -62 104 -99 155 -209 155 -338 0 -127 -50 -242 -145 -328 -92 -84 -190 -121 -322 -122 -55 0 -73 -3 -73 -14 0 -29 103 -35 210 -10 138 31 255 127 323 263 l42 84 0 126 c0 107 -4 134 -23 181 -49 121 -190 264 -217 220z"></path><path id="p13SL9OflS" d="M922 3845 c-12 -9 -34 -37 -49 -63 -23 -39 -28 -59 -28 -117 0 -59 5 -78 28 -118 35 -60 93 -102 157 -116 73 -16 164 6 141 33 -8 10 -23 11 -53 6 -90 -17 -180 31 -219 115 -34 74 -20 152 41 222 40 46 29 70 -18 38z"></path><path id="p1AfcexWg0" d="M3208 3774 c-20 -42 -23 -66 -23 -164 0 -109 2 -119 32 -183 102 -215 349 -318 568 -236 64 24 135 73 135 94 0 23 -20 18 -70 -15 -70 -47 -134 -64 -230 -64 -176 1 -317 100 -383 268 -27 69 -28 200 -3 274 13 39 15 57 7 65 -8 8 -17 -3 -33 -39z"></path><path id="prJjBvCO7" d="M7480 3802 c0 -5 12 -36 26 -68 74 -167 42 -349 -82 -470 -100 -98 -240 -141 -364 -112 -36 9 -86 24 -112 34 -54 21 -75 12 -38 -16 71 -53 236 -75 345 -46 217 57 360 277 325 499 -12 81 -57 181 -82 185 -10 2 -18 -1 -18 -6z"></path><path id="pL1KhNgza" d="M9720 3787 c0 -7 16 -28 35 -47 46 -45 65 -88 65 -148 0 -62 -13 -98 -48 -136 -40 -42 -98 -66 -164 -66 -32 0 -58 -4 -58 -10 0 -20 44 -32 98 -27 195 20 283 262 147 404 -41 42 -75 56 -75 30z"></path><path id="p1FVV7xNJq" d="M3414 3705 c-58 -139 52 -298 206 -298 59 0 136 31 147 59 10 27 -5 27 -62 -1 -47 -23 -64 -27 -106 -22 -117 14 -192 131 -154 239 19 54 19 58 -1 58 -8 0 -22 -16 -30 -35z"></path><path id="pNMc0AusG" d="M7276 3681 c-3 -4 4 -31 16 -58 16 -39 19 -60 14 -96 -9 -56 -52 -118 -99 -140 -49 -23 -134 -22 -171 2 -17 11 -33 18 -38 15 -20 -13 -4 -33 44 -54 93 -40 202 -8 262 78 41 58 49 158 17 220 -21 41 -34 51 -45 33z"></path><path id="pQxaLCG91" d="M1967 3608 c-98 -105 -142 -290 -102 -437 65 -246 310 -405 557 -363 73 13 118 33 118 54 0 11 -12 10 -150 -11 -301 -46 -563 253 -485 554 14 53 34 92 96 192 29 45 6 53 -34 11z"></path><path id="p13cR9UrAd" d="M8793 3624 c-3 -9 0 -26 7 -38 103 -162 114 -314 35 -473 -98 -198 -347 -295 -551 -215 -56 22 -88 16 -65 -12 37 -44 232 -70 340 -45 158 36 300 169 351 329 19 60 22 85 18 173 -6 112 -26 176 -79 253 -32 47 -46 54 -56 28z"></path><path id="pvJUbOois" d="M2159 3468 c-53 -56 -73 -154 -47 -239 15 -52 68 -113 121 -138 71 -34 201 -25 214 16 4 10 -15 11 -75 6 -70 -5 -86 -3 -127 17 -116 56 -143 218 -53 317 19 20 18 43 -2 43 -5 0 -19 -10 -31 -22z"></path><path id="psnWJ4ryN" d="M8578 3469 c-2 -6 9 -37 25 -68 24 -46 28 -64 23 -103 -9 -82 -47 -135 -121 -169 -49 -23 -93 -24 -145 -3 -22 9 -47 13 -56 10 -42 -16 53 -66 126 -66 63 0 114 23 165 75 55 54 75 102 75 176 -1 79 -75 199 -92 148z"></path><path id="pOZ1Emezm" d="M2602 2637 c-422 -422 -513 -519 -472 -505 15 5 980 969 980 979 0 5 -6 9 -13 9 -6 0 -229 -217 -495 -483z"></path><path id="puFKYVDxb" d="M7572 3066 c5 -20 908 -876 924 -876 8 0 14 4 14 9 0 15 -913 881 -928 881 -7 0 -12 -6 -10 -14z"></path><path id="pdZhLqPUd" d="M6902 2936 c5 -23 489 -567 499 -560 5 3 9 10 9 15 0 16 -479 554 -496 557 -10 3 -15 -2 -12 -12z"></path><path id="pOOsEwXn3" d="M3759 2674 c-9 -10 -15 -51 -17 -114 -5 -107 9 -168 55 -248 123 -215 409 -287 622 -157 71 42 106 79 97 101 -7 18 -1 21 -92 -49 -107 -81 -282 -100 -407 -44 -169 76 -271 271 -238 452 12 62 3 87 -20 59z"></path><path id="p4FGF3n3o" d="M5114 2656 c-17 -44 39 -145 100 -181 89 -52 187 -42 262 27 43 39 76 109 60 126 -8 7 -19 -5 -59 -67 -35 -54 -70 -74 -135 -79 -46 -3 -68 0 -100 17 -46 23 -86 77 -97 128 -8 38 -22 51 -31 29z"></path><path id="pOQud4Exs" d="M3971 2621 c-18 -33 -13 -121 10 -168 64 -133 251 -165 348 -59 39 41 13 54 -34 16 -21 -17 -50 -33 -64 -36 -14 -3 -31 -7 -38 -9 -26 -8 -115 24 -143 50 -42 40 -64 103 -56 159 9 59 9 60 -3 64 -5 2 -14 -6 -20 -17z"></path><path id="pMAW201t6" d="M7784 2616 c-4 -10 8 -47 27 -89 33 -69 34 -77 34 -193 0 -119 0 -121 -38 -196 -45 -92 -118 -163 -215 -209 -57 -27 -81 -33 -162 -37 -84 -4 -104 -1 -170 22 -41 15 -83 29 -92 33 -27 8 -22 -22 6 -40 13 -9 52 -26 87 -38 54 -18 80 -20 170 -17 97 4 113 8 183 41 196 93 310 300 279 510 -11 78 -53 185 -84 213 -17 16 -19 16 -25 0z"></path><path id="pUrnQz6et" d="M6959 2603 c-3 -89 -10 -150 -20 -181 -51 -159 -171 -264 -332 -292 -133 -24 -255 19 -365 128 -52 51 -68 62 -70 48 -5 -23 42 -81 104 -129 220 -168 547 -91 670 158 41 82 63 195 48 246 -10 36 -34 51 -35 22z"></path><path id="pOuwheMa3" d="M4900 2578 c1 -84 86 -223 177 -288 227 -162 551 -79 668 172 51 110 16 123 -38 14 -130 -258 -464 -312 -660 -107 -61 63 -83 101 -107 180 -19 64 -40 79 -40 29z"></path><path id="p15fPRmOxl" d="M6719 2578 c-1 -7 -1 -21 0 -30 4 -33 -20 -97 -46 -129 -77 -91 -199 -90 -285 3 -31 33 -39 38 -44 24 -9 -24 38 -80 89 -105 149 -72 329 43 315 203 -3 37 -27 64 -29 34z"></path><path id="pfT3SSB3t" d="M2900 2518 c-41 -68 -55 -128 -54 -238 0 -85 5 -116 24 -165 99 -254 370 -383 624 -295 92 31 170 100 99 87 -16 -3 -57 -17 -92 -32 -218 -92 -472 6 -572 220 -57 121 -59 231 -8 364 15 41 26 78 23 83 -10 16 -24 8 -44 -24z"></path><path id="p1AYuewKmI" d="M7555 2470 c-3 -5 1 -20 9 -32 27 -41 36 -105 21 -160 -31 -120 -169 -182 -281 -126 -45 22 -61 20 -51 -6 9 -22 62 -46 115 -53 141 -16 263 92 263 236 1 90 -49 184 -76 141z"></path><path id="p3CEk2gdK" d="M3121 2425 c-43 -56 -46 -168 -7 -244 21 -38 76 -88 118 -105 91 -38 287 9 239 57 -8 8 -23 5 -56 -11 -82 -40 -173 -23 -237 45 -15 15 -32 41 -37 56 -18 46 -13 124 9 168 30 58 10 82 -29 34z"></path><path id="p16voAA5oL" d="M9115 2260 c-4 -7 7 -43 25 -81 44 -97 57 -180 42 -270 -49 -285 -340 -450 -606 -344 -71 28 -96 31 -96 11 0 -19 90 -62 160 -77 76 -16 212 -6 280 21 241 96 369 363 291 611 -30 96 -77 159 -96 129z"></path><path id="pUxajKXAm" d="M1567 2242 c-9 -10 -28 -43 -42 -73 -122 -268 23 -584 309 -671 89 -27 232 -22 318 12 66 26 98 54 80 72 -8 8 -27 4 -72 -15 -148 -64 -311 -53 -433 32 -140 96 -220 270 -197 431 9 59 45 166 61 175 11 8 12 42 0 49 -4 3 -15 -2 -24 -12z"></path><path id="pCkLAeJRL" d="M1771 2127 c-43 -52 -54 -173 -22 -242 41 -92 156 -155 254 -141 51 8 107 40 107 61 0 20 -23 19 -63 -1 -85 -44 -207 -3 -255 86 -31 59 -28 149 6 198 23 32 22 52 -2 52 -8 0 -19 -6 -25 -13z"></path><path id="psKOEcPPX" d="M8894 2115 c-4 -8 2 -32 11 -51 41 -88 25 -175 -45 -238 -66 -60 -146 -69 -231 -26 -20 11 -39 16 -43 13 -31 -32 53 -77 144 -77 175 0 288 173 219 334 -22 51 -46 70 -55 45z"></path><path id="p10jALqogL" d="M3874 1878 c-5 -7 -75 -170 -155 -363 -131 -311 -154 -382 -121 -362 5 4 76 166 157 362 105 251 145 359 138 366 -8 8 -13 7 -19 -3z"></path><path id="p9YfuW86O" d="M5347 1393 c-3 -246 -4 -449 -2 -451 2 -3 11 -2 20 1 13 6 15 60 15 452 0 365 -2 445 -13 445 -11 0 -15 -83 -20 -447z"></path><path id="pbSzKwesp" d="M6827 1813 c-3 -5 7 -38 23 -73 15 -36 90 -207 165 -380 137 -315 159 -358 170 -329 6 17 -326 781 -342 786 -6 2 -13 0 -16 -4z"></path><path id="pHyrgrt1i" d="M4134 1759 c-5 -8 -8 -50 -8 -94 6 -407 477 -624 799 -368 64 51 113 119 97 135 -9 9 -30 -6 -86 -60 -98 -96 -175 -132 -292 -140 -191 -11 -357 85 -435 253 -32 68 -53 172 -46 222 6 37 -14 75 -29 52z"></path><path id="pEo2wpOM9" d="M4364 1715 c-9 -47 10 -118 46 -170 59 -86 197 -121 295 -76 43 19 105 82 105 106 0 24 -27 17 -52 -14 -90 -112 -268 -94 -336 34 -8 17 -16 57 -17 90 -2 46 -6 61 -18 63 -11 2 -18 -7 -23 -33z"></path><path id="pqeVdvcl3" d="M6290 1669 c-14 -59 -62 -118 -114 -143 -42 -20 -116 -21 -159 -2 -37 16 -89 68 -108 111 -17 37 -33 38 -37 4 -5 -40 53 -109 117 -141 96 -49 195 -34 272 42 65 62 100 180 54 180 -7 0 -18 -22 -25 -51z"></path><path id="pSRkkaQrU" d="M6566 1692 c-2 -4 -12 -39 -20 -76 -34 -144 -125 -259 -254 -319 -63 -29 -74 -31 -182 -32 -114 0 -117 1 -193 38 -90 44 -162 112 -203 192 -30 57 -51 75 -60 51 -15 -39 94 -186 183 -248 155 -106 374 -109 534 -7 69 44 146 131 179 202 32 68 56 167 47 191 -7 17 -23 21 -31 8z"></path><path id="pUqhQqGaJ" d="M3067 1103 c-14 -22 -18 -134 -7 -192 59 -325 404 -503 698 -359 105 52 224 178 167 178 -9 0 -28 -12 -43 -27 -92 -94 -165 -133 -282 -152 -127 -21 -267 27 -371 126 -96 91 -144 219 -137 364 2 40 -1 63 -9 66 -6 2 -13 0 -16 -4z"></path><path id="pafF7tDqW" d="M3301 1059 c-15 -43 -14 -66 5 -128 31 -105 152 -183 257 -166 78 13 167 75 167 116 0 26 -16 24 -43 -7 -47 -55 -137 -83 -206 -64 -92 24 -156 119 -149 220 4 61 -14 78 -31 29z"></path><path id="p18SByrEwf" d="M7655 1018 c-2 -7 -5 -60 -7 -118 -4 -95 -7 -112 -38 -175 -135 -282 -511 -342 -725 -116 -54 57 -75 68 -75 41 0 -12 23 -45 50 -74 156 -165 421 -194 616 -68 104 68 176 168 209 293 25 93 16 229 -15 229 -6 0 -12 -6 -15 -12z"></path><path id="p3SPDCRUx" d="M7396 978 c-3 -7 -6 -41 -8 -75 -7 -106 -73 -173 -178 -181 -72 -5 -137 22 -176 74 -27 35 -44 37 -44 4 0 -26 81 -94 128 -108 109 -33 217 5 277 97 29 43 45 118 36 163 -7 33 -28 49 -35 26z"></path><path id="p15H9J1G5q" d="M5124 537 c-7 -19 23 -96 52 -134 59 -78 197 -107 291 -62 52 25 105 85 121 135 20 67 -7 75 -39 12 -59 -118 -176 -165 -280 -112 -41 21 -88 81 -101 130 -12 42 -33 58 -44 31z"></path><path id="pemo7vIOn" d="M4895 480 c-10 -17 31 -139 65 -193 64 -102 176 -184 290 -213 79 -20 212 -15 285 11 125 44 242 153 291 272 28 69 30 96 8 91 -19 -3 -22 -9 -59 -90 -15 -32 -48 -82 -75 -110 -234 -255 -642 -165 -754 167 -23 68 -38 87 -51 65z"></path></g></g></svg>